<svg version="1.2" xmlns="http://www.w3.org/2000/svg" viewBox="0 0 1100 464" width="1100" height="464">
	<title>ZenithChatLogo-svg</title>
	<style>
		.s0 { fill: #5f64fa } 
		.s1 { fill: #191d3e } 
	</style>
	<path id="rect2" class="s0" d="m819 416.7h18.1v13.4h-18.1z"/>
	<path id="path34" fill-rule="evenodd" class="s0" d="m994.4 309.9c11.5 1.2 20.7 6.5 30 13v-12h16.5v118.5h-16.5v-13.5c-7.8 6-15.7 11-25.5 12.8-19.3 3.5-40.1-2.1-52.7-17.5-24.8-30.2-15.6-87.1 24.2-99.2 5.8-1.8 11.9-2.5 17.9-2.4q3.1 0 6.1 0.3zm-19.5 17.3c-29.1 7.3-32.3 52.9-16.2 73.3 9.8 12.5 28.5 14.6 43.2 10.6 21.6-5.8 22.7-27.6 22.4-46.2-0.1-10.3-0.9-21-7.8-29.2-5.9-6.9-15.5-9.8-25.1-10.2-5.8-0.2-11.6 0.4-16.5 1.7z"/>
	<path id="path33" class="s1" d="m451.4 309.4h30v120h-30z"/>
	<path id="path32" class="s1" d="m352.4 309.4c-7.2 0.6-29.8-0.4-29.8 0.6-0.1 4.5-0.1 22.1-0.2 29.4v61.5c0.4 7.1 0 28.3 0.3 28.4 1.2 0.7 22.4-0.5 29.7 0.1 0-18-0.3-36 0-54 0.2-9.1 0.1-20.1 5.5-28 9.8-14.3 37.8-12.4 45.8 2.8 4.6 9 4.1 19.9 4.2 29.7v49.5h30v-27c0-32.4 6.9-81.2-34.5-91.1-7.8-1.9-16.1-2.1-24-1.8-10.2 0.5-18.3 3.8-27 8.9z"/>
	<path id="path31" fill-rule="evenodd" class="s1" d="m294.5 325c9.7 10.1 13.5 23.3 14.8 36.9 0.5 5.1 3 17.7-2.3 17.7-4 0-11.3 0.4-16.1 0.3-9.5-0.3-19 0-28.5 0h-45c8.6 17 19.5 22.1 43.5 19.1 11.2-1.4 13.5-9 17.6-9.7 6.2-1.2 20.4-0.1 28.9-0.4-3.1 11.5-7.4 21.8-16.9 29.4-28.3 22.7-83.2 15-97.2-20.4-4.5-11.4-4.8-23.9-4.2-36 0.7-14.7 5.6-29.3 16.8-39.3 11-9.7 28-14.5 44.8-14.1 16.9 0.4 33.6 5.8 43.8 16.5zm-75.6 29.4h60c-6.6-11.2-18.3-16.8-30-16.8-11.8 0-23.5 5.6-30 16.8z"/>
	<path id="path30" class="s0" d="m1054.4 282.4v94.5c0 13.7-2.1 31.5 7.6 42.7 8.8 10.3 23.5 9.7 35.9 9.8v-16.5c-7.5-0.2-16.5 0-22-6-5.7-6.3-5-16.2-5-24-0.1-18.5 0-37 0-55.5h27l-0.2-17-24.8-0.2-0.5-27.7z"/>
	<path id="path29" class="s0" d="m818.9 282.4v111c0 39-1.1 36.5 8.9 36.6 10.8 0.2 9.5-0.3 9.1-23.1v-43.5c0-8.5-0.5-17.7 4.1-25.2 11-17.8 47.1-17.4 56.8 1.3 5.3 10.1 5 23.3 5.1 34.4 0.1 18.5 0 37 0 55.5h16.5v-25.5c0-33.4 6.9-86.4-37.5-93.5-6.4-1-13.1-1.2-19.5-0.6-9.8 0.8-17.6 4.7-25.5 10.1v-37.5z"/>
	<path id="path28" class="s1" d="m557.9 282.4v147h30v-52.5c0-9.6-0.9-20.9 4.6-29.3 9.7-14.8 37.8-12.5 46 2.5 4.7 8.7 4.7 20.1 4.8 29.8 0.3 16.5 0.1 33 0.1 49.5h30v-25.5c0-32.6 6.2-82-34.5-92.4-7.8-2-16-2.3-24-2-10.4 0.4-18.4 3.3-27 8.9v-36z"/>
	<path id="path27" class="s1" d="m494.9 282.4v91.5c0 14.3-1.8 30.9 8 42.7 10.5 12.4 26.5 12.8 41.5 12.8v-30h-19.5v-60h19.5v-30h-19.5v-27z"/>
	<path id="path26" class="s0" d="m451.4 282.4h30v18h-30z"/>
	<path id="path1" class="s0" d="m746.9 281c-15.8 0-31.6 4.3-41.6 13.1-11.4 9.9-15.5 24.8-17.4 39.3-3.4 25.8-3.9 62.3 16 81.9 19.1 18.8 60.7 20 81.8 3.6 9.8-7.7 15.9-19.8 19.1-31.5h-1.2c-4.7-0.1-13-0.9-16.5 0.8-5.5 2.8-6.7 15.3-13.8 19.6-12.8 7.9-37.1 7.5-50.3 0.8-9.6-4.9-14.8-14-17.2-24.2-5.9-25.2-8.7-75.2 23.1-83.9 13.4-3.6 34.7-2.9 46.9 4.6 8.1 5 9.1 17.8 14.7 22.6 3.5 3.1 10.8 0.7 14.9-0.3-2.6-12.6-7-24.6-17-33.3-10-8.8-25.7-13.1-41.5-13.1z"/>
	<path id="path1-2" fill-rule="evenodd" class="s1" d="m13 391l64.8-78.9 64.9-78.9 34.1-0.2v36.3l-65 78.7-64.9 78.7-16.9 0.7-17 0.7zm67.1 33.9l2-3 13.5-16.4 13.4-16.5h70.5v39h-101.3zm-67.2-191.9h98.6l-2.2 3.3-2.2 3.2-13.5 16.3-13.5 16.2h-67.2z"/>
	<path id="path1-2 copy" fill-rule="evenodd" class="s1" d="m13 391l64.8-78.9 64.9-78.9 34.1-0.2v36.3l-65 78.7-64.9 78.7-16.9 0.7-17 0.7zm67.1 33.9l2-3 13.5-16.4 13.4-16.5h70.5v39h-101.3zm-67.2-191.9h98.6l-2.2 3.3-2.2 3.2-13.5 16.3-13.5 16.2h-67.2z"/>
</svg>